<?xml version="1.0" encoding="UTF-8" standalone="no"?>
<!DOCTYPE svg PUBLIC "-//W3C//DTD SVG 1.1//EN" "http://www.w3.org/Graphics/SVG/1.1/DTD/svg11.dtd">
<svg width="100%" height="100%" viewBox="0 0 497 497" version="1.1" xmlns="http://www.w3.org/2000/svg" xmlns:xlink="http://www.w3.org/1999/xlink" xml:space="preserve" xmlns:serif="http://www.serif.com/" style="fill-rule:evenodd;clip-rule:evenodd;stroke-linejoin:round;stroke-miterlimit:2;">
    <g transform="matrix(1,0,0,1,-1596.822254,-1097.351467)">
        <g transform="matrix(1,0,0,1,732.449524,0)">
            <g transform="matrix(1.584,0,0,1.2375,131.404227,-192.412312)">
                <rect x="462.733" y="1042.233" width="313.171" height="400.859" style="fill:rgb(0,198,255);fill-opacity:0;"/>
            </g>
            <g transform="matrix(0.313394,0,0,0.313394,821.343667,1174.399355)">
                <g transform="matrix(2.526772,0.207572,-0.207572,2.526772,568.038184,395.556072)">
                    <g transform="matrix(1,0,0,1,-459.114006,-436.697403)">
                        <path d="M610.503,190.22L635.455,219.293L621.02,354.338L640.928,223.71L658.359,234.689L632.311,376.066L630.437,372.459L630.437,382.858L610.503,382.858L610.503,190.22Z" style="fill:rgb(250,200,0);"/>
                    </g>
                    <g transform="matrix(-1,-0,0,1,761.891332,-436.697403)">
                        <path d="M610.503,190.22L635.455,219.293L621.02,354.338L640.928,223.71L658.359,234.689L632.311,376.066L630.437,372.459L630.437,382.858L610.503,382.858L610.503,190.22Z" style="fill:rgb(250,200,0);"/>
                    </g>
                    <g transform="matrix(41328.840513,0,0,103399.841222,-25231224.71141,-19668973.890629)">
                        <path d="M610.503,190.22L610.503,190.222L610.503,190.222L610.503,190.22Z" style="fill:rgb(250,200,0);"/>
                    </g>
                    <g transform="matrix(1,0,0,1,-459.114006,-436.697403)">
                        <path d="M610.503,190.22L635.455,219.293L621.02,354.338L640.928,223.71L658.359,234.689L632.311,376.066L630.437,372.459L630.437,382.858L610.503,382.858L610.503,190.22Z" style="fill:rgb(250,200,0);"/>
                    </g>
                    <g transform="matrix(-1,-0,0,1,761.891332,-436.697403)">
                        <path d="M610.503,190.22L635.455,219.293L621.02,354.338L640.928,223.71L658.359,234.689L632.311,376.066L630.437,372.459L630.437,382.858L610.503,382.858L610.503,190.22Z" style="fill:rgb(250,200,0);"/>
                    </g>
                    <g transform="matrix(41328.840513,0,0,103399.841222,-25231224.71141,-19668973.890629)">
                        <path d="M610.503,190.22L610.503,190.222L610.503,190.222L610.503,190.22Z" style="fill:rgb(250,200,0);"/>
                    </g>
                    <g transform="matrix(0,1,-1,0,636.304311,-560.284424)">
                        <path d="M610.503,190.22L635.455,219.293L621.02,354.338L640.928,223.71L658.359,234.689L632.311,376.066L630.437,372.459L630.437,382.858L610.503,382.858L610.503,190.22Z" style="fill:rgb(250,200,0);"/>
                    </g>
                    <g transform="matrix(-0,-1,-1,0,636.304311,660.720913)">
                        <path d="M610.503,190.22L635.455,219.293L621.02,354.338L640.928,223.71L658.359,234.689L632.311,376.066L630.437,372.459L630.437,382.858L610.503,382.858L610.503,190.22Z" style="fill:rgb(250,200,0);"/>
                    </g>
                    <g transform="matrix(0,41328.840513,-103399.841222,0,19669173.497537,-25231325.881829)">
                        <path d="M610.503,190.22L610.503,190.222L610.503,190.222L610.503,190.22Z" style="fill:rgb(250,200,0);"/>
                    </g>
                    <g transform="matrix(0.707107,-0.707107,0.707107,0.707107,-624.189057,136.607465)">
                        <path d="M618.703,199.774L635.455,219.293L621.02,354.338L640.928,223.71L658.359,234.689L632.311,376.066L630.437,372.459L630.437,382.858L610.503,382.858L610.503,220.43C610.913,219.403 611.321,218.383 611.725,217.371C614.199,211.175 616.55,205.26 618.703,199.774Z" style="fill:rgb(250,200,0);"/>
                    </g>
                    <g transform="matrix(-0.707107,0.707107,0.707107,0.707107,239.192097,-726.773689)">
                        <path d="M644.73,308.659C641.333,299.021 637.241,288.133 632.843,276.763L621.02,354.338L630.073,269.642C624.154,254.493 617.847,238.787 612.035,224.261C611.52,222.974 611.009,221.697 610.503,220.43L610.503,382.858L630.437,382.858L630.437,372.459L632.311,376.066L644.73,308.659Z" style="fill:rgb(250,200,0);"/>
                    </g>
                    <g transform="matrix(29223.903385,-29223.903385,73114.728901,73114.728901,-31749225.66286,3933226.030568)">
                        <path d="M610.503,190.222L610.503,190.22C610.503,190.22 610.503,190.22 610.503,190.22L610.503,190.222L610.503,190.222Z" style="fill:rgb(250,200,0);"/>
                    </g>
                    <g transform="matrix(0.707107,0.707107,-0.707107,0.707107,62.999442,-725.359475)">
                        <path d="M610.503,190.22L635.455,219.293L621.02,354.338L640.928,223.71L658.359,234.689L632.311,376.066L630.437,372.459L630.437,382.858L610.503,382.858L610.503,190.22Z" style="fill:rgb(250,200,0);"/>
                    </g>
                    <g transform="matrix(-0.707107,-0.707107,-0.707107,0.707107,926.380596,138.021679)">
                        <path d="M610.503,190.22L635.455,219.293L621.02,354.338L640.928,223.71L658.359,234.689L632.311,376.066L630.437,372.459L630.437,382.858L610.503,382.858L610.503,190.22Z" style="fill:rgb(250,200,0);"/>
                    </g>
                    <g transform="matrix(29223.903385,29223.903385,-73114.728901,73114.728901,-3933026.423661,-31749326.833278)">
                        <path d="M610.503,190.22L610.503,190.222L610.503,190.222L610.503,190.22Z" style="fill:rgb(250,200,0);"/>
                    </g>
                    <g transform="matrix(-0.707107,0.707107,-0.707107,-0.707107,924.966383,-38.170976)">
                        <path d="M630.437,382.858L610.503,382.858L610.503,190.22L610.944,200.02C615.845,216.316 623.183,239.082 630.313,267.396L621.02,354.338L632.753,277.349C636.083,291.322 639.299,306.508 642.123,322.812L632.311,376.066L630.437,372.459L630.437,382.858Z" style="fill:rgb(250,200,0);"/>
                    </g>
                    <g transform="matrix(0.707107,-0.707107,-0.707107,-0.707107,61.585229,825.210178)">
                        <path d="M610.503,190.22L635.455,219.293L621.02,354.338L640.928,223.71L658.359,234.689L632.311,376.066L630.437,372.459L630.437,382.858L610.503,382.858L610.503,190.22Z" style="fill:rgb(250,200,0);"/>
                    </g>
                    <g transform="matrix(-29223.903385,29223.903385,-73114.728901,-73114.728901,31749526.440186,-3933127.594079)">
                        <path d="M610.503,190.22L610.503,190.222L610.503,190.222L610.503,190.22Z" style="fill:rgb(250,200,0);"/>
                    </g>
                    <g transform="matrix(1.89976,0,0,1.89976,-1011.435259,-875.058625)">
                        <path d="M678.577,500.222C676.731,509.284 673.092,517.696 668.045,525.072C666.283,527.648 664.349,530.097 662.261,532.404C661.38,533.376 660.472,534.322 659.538,535.242C658.603,536.163 657.642,537.057 656.655,537.924C654.323,539.972 651.85,541.864 649.254,543.583C647.413,544.802 645.51,545.935 643.55,546.975C640.573,544.613 637.571,542.154 634.551,539.593C612.83,521.17 602.363,504.363 594.094,501.044C583.908,496.955 583.124,498.476 574.76,491.383C560.402,479.205 567.113,473.539 551.141,459.991C550.95,459.83 550.298,459.022 549.436,457.918C551.044,454.436 552.935,451.111 555.082,447.974C556.844,445.398 558.778,442.949 560.867,440.643C561.747,439.671 562.655,438.724 563.589,437.804C564.524,436.883 565.486,435.989 566.472,435.122C568.804,433.074 571.277,431.183 573.873,429.463C581.319,424.533 589.783,421.02 598.881,419.311C601.908,418.742 605.005,418.373 608.158,418.218C609.287,418.163 610.422,418.135 611.564,418.135C611.739,418.135 611.915,418.135 612.09,418.137C613.411,418.147 614.722,418.194 616.024,418.278C619.166,418.481 622.25,418.896 625.263,419.51C634.324,421.355 642.737,424.995 650.113,430.041C652.689,431.803 655.138,433.737 657.444,435.826C658.416,436.706 659.363,437.614 660.283,438.548C661.204,439.483 662.098,440.445 662.964,441.432C665.012,443.764 666.904,446.236 668.624,448.833C673.554,456.278 677.067,464.743 678.776,473.84C679.345,476.867 679.713,479.965 679.868,483.118C679.924,484.246 679.952,485.381 679.952,486.523C679.952,486.699 679.951,486.874 679.95,487.049C679.94,488.37 679.892,489.682 679.808,490.984C679.606,494.125 679.191,497.21 678.577,500.222Z" style="fill:rgb(250,200,0);"/>
                    </g>
                </g>
                <g transform="matrix(0.658771,0,0,0.605583,-583.707487,-124.264914)">
                    <path d="M3227.967,2279.983L2642.813,1839L2440.35,1649.687L2293.916,1478.27L2155.637,1286L2079,1247L2024.132,1218.61L1941.063,1118L1884.16,967L1836.257,913.593L1795,847L1747.947,772.947L1727.637,703.921L1599,306.541L1534.336,94.491L1528.28,94.491L1514.639,120.402L1509.115,123.57L1503.521,120.402L1493.203,133.26L1490.095,138.55L1498.465,149.616L1492,157L1479.072,157L1471,162L1465,173L1441.813,197.636L1433.014,213.487L1424,231.041L1419.768,246.314L1404.694,249.97L1376.275,267.557L1360,280.664C1359.84,280.824 1349,284.593 1349,284.593L1344,289.827L1330,286.04L1330,293.869L1340.66,304.061L1351,317.279L1357.025,339L1374.711,365.322L1395.882,392.713L1397.518,408.487L1395.882,419.846L1389.621,426.004L1380.686,430.245L1352.653,430.245L1351,432.724L1345,438.125L1339.945,443.587L1328.237,454.912L1316.244,465.759L1311.295,467.77L1299,460L1281.016,460L1269,467L1257.346,475.089L1245.77,481.4L1239.282,477.199L1228.702,475.089L1233.445,487.659L1255.821,511.374L1253.306,512.669L1253.306,533.325L1259.421,535.13L1254.703,539.462L1253.306,547.356L1240.501,565.942L1235.974,581.387C1235.974,581.387 1235.146,598.343 1235,599C1234.086,603.114 1228.702,613.361 1228.702,613.361L1214,644C1214,644 1205.143,661.499 1203,669C1201.437,674.47 1196.087,676.694 1195.689,679.263C1195.452,680.797 1200.936,684.74 1200.207,687.909C1199.995,688.827 1199.664,691.018 1198.35,691.816C1197.035,692.614 1192.322,692.698 1192.322,692.698C1192.322,692.698 1187.901,712.947 1187,717C1185.958,721.688 1186.961,721.097 1185,726C1182.254,732.866 1174.24,729.771 1167.578,732.134C1163.702,733.51 1162.906,738.094 1157,744C1154.622,746.378 1151.166,746.345 1150.026,748.087C1142.393,759.746 1161.262,760.843 1163.621,768.706C1164.913,773.012 1159.679,788.186 1164.831,798.74C1166.576,802.316 1172.409,806.642 1176.294,809.232C1195.721,822.183 1181.688,850.034 1187,851C1195.476,852.541 1194.855,852.742 1203,856C1212.829,859.932 1212.277,860.555 1217,870C1221.608,879.216 1224.045,874.626 1230,876C1234.105,876.947 1226.032,889.813 1244,897C1247.352,898.341 1251.845,905.619 1254.703,907.317C1262.104,911.714 1271.473,914.645 1275.869,919.683C1280.249,924.702 1281.393,930.622 1282.917,935.531C1285.401,943.533 1288.531,948.934 1288.975,951.154C1290.446,958.513 1293.883,955.589 1296,963C1296.718,965.515 1299.912,965.164 1301,967C1303.667,971.5 1299.336,977.336 1312,990C1315.885,993.885 1326.873,1035.436 1346,1045C1347.137,1045.569 1349.117,1060.58 1349,1077.223C1348.981,1079.907 1345.957,1082.707 1346,1085.418C1346.036,1087.719 1348.829,1089.939 1349,1092.192C1349.844,1103.284 1347.057,1113.414 1344,1118C1331.253,1137.121 1331.936,1146.391 1337.374,1158.48C1340.575,1165.596 1347.104,1172.729 1349,1186C1349.582,1190.075 1352.082,1187.122 1352.653,1191.685C1353.577,1199.078 1353.458,1203.574 1355,1207.226C1358.222,1214.861 1367.112,1216.112 1378,1227C1383.309,1232.309 1383.305,1239.456 1385.391,1243.986C1390.421,1254.916 1392.27,1263.494 1408.825,1270.116C1410.871,1270.934 1412.39,1275.142 1414.919,1276.623C1417.448,1278.103 1423.405,1278.405 1424,1279C1426.881,1281.881 1432.715,1282.779 1439.443,1283.129C1447.754,1283.563 1457.245,1283.904 1462,1295C1463.154,1297.693 1467.603,1291.603 1492,1316C1493.59,1317.59 1498.326,1338.326 1512,1352C1535.824,1375.824 1534.316,1377.85 1565,1391C1582.269,1398.401 1576.404,1404.404 1590,1418C1603.385,1431.385 1579.357,1511.875 1588,1527C1596.441,1541.772 1589.359,1543.717 1597,1559C1613.23,1591.459 1610.592,1593.408 1606,1598C1602.384,1601.616 1613.134,1649.201 1617,1655C1622.243,1662.865 1631.903,1682.625 1629,1684C1623.276,1686.711 1615.724,1681.289 1610,1684C1609.333,1684.316 1610.354,1684.762 1608,1693C1607.664,1694.177 1601.757,1700.135 1604.38,1700C1608.854,1699.771 1617.173,1705.269 1629,1702.204C1634.358,1700.815 1639.623,1695.918 1647,1691C1654.793,1685.805 1649.874,1699.65 1649,1700C1645.087,1701.565 1638.413,1703.671 1636.25,1706.464C1631.686,1712.359 1627.059,1716.49 1624.168,1717.694C1623.093,1718.142 1608.755,1720.359 1608,1723C1605.967,1730.114 1603.343,1729.463 1597,1732C1585.409,1736.636 1591.358,1739.201 1581,1746.106C1577.391,1748.512 1577.947,1749.941 1576,1751.384C1574,1752.867 1571.368,1753.158 1569,1755C1563.394,1759.36 1581.313,1771.243 1572.557,1780C1567.896,1784.66 1565.136,1826.769 1565,1839C1564.926,1845.673 1565.066,1846.741 1565,1853C1564.952,1857.517 1563.333,1879.267 1563.333,1879.267C1563.333,1879.267 1566.441,1881.96 1567.256,1883.778C1569.7,1889.234 1575.995,1909.995 1578,1912C1579.004,1913.004 1584.097,1923.186 1585.763,1927.019C1586.865,1929.553 1589.862,1933.138 1588,1935C1583.961,1939.039 1603.014,1937.991 1594,1944C1591.157,1945.895 1594.356,1949.527 1600.287,1952.115C1604.971,1954.16 1609.903,1956.006 1615.378,1961.481C1623.24,1969.343 1622.774,1976.438 1633,1981.551C1635.117,1982.61 1636.706,1983.941 1638.226,1987.013C1638.589,1987.746 1636.196,1991.207 1633,1995.083C1630.564,1998.038 1628.622,2001.618 1629,2002.154C1629.751,2003.216 1631.505,2005.342 1635.642,2003.529C1640.228,2001.519 1647.274,1995.507 1649,1996C1658.995,1998.856 1662.439,2007.589 1666.451,2014.239C1672.588,2024.41 1676.159,2032.894 1676,2033C1662.555,2041.963 1660.684,2063.305 1659.928,2085.706C1658.976,2113.946 1658.742,2143.869 1627.515,2152.791C1606.091,2158.912 1596.557,2203.458 1595.504,2208.723C1594.05,2215.997 1589.445,2214.821 1585,2218.377C1584.279,2218.954 1594,2221.794 1594,2221.794C1594,2221.794 1599,2231.037 1599,2234.404C1599,2237.436 1592.215,2239.096 1590,2241.311C1582.54,2248.771 1592,2258 1592,2258C1592,2258 1594.06,2265.004 1597,2265.335C1600.504,2265.73 1609.691,2258.592 1613.024,2260.37C1616.358,2262.147 1616.337,2268.246 1619,2270.766C1621.663,2273.286 1625.496,2270.703 1629,2275.491C1630.787,2277.932 1627.992,2285.711 1631,2287C1637.366,2289.728 1631,2301 1631,2301C1631,2301 1620.362,2305.364 1620.515,2307.659C1620.848,2312.659 1637.702,2307.597 1633,2317C1628.694,2325.612 1624.109,2334.891 1631,2328C1653.57,2305.43 1668.23,2317.116 1849,2290C1998.28,2267.608 2041.975,2270.747 2068,2274C2070.061,2274.258 2098.455,2283.807 2236,2301C2241.887,2301.736 2301.364,2315.055 2325,2313C2355.608,2310.338 2409,2324 2409,2324L3227.967,2279.983Z" style="fill:url(#_Linear1);"/>
                </g>
            </g>
        </g>
    </g>
    <defs>
        <linearGradient id="_Linear1" x1="0" y1="0" x2="1" y2="0" gradientUnits="userSpaceOnUse" gradientTransform="matrix(2663.913938,1005.389773,-924.21504,2897.888169,972.1534,691.615515)"><stop offset="0" style="stop-color:rgb(255,35,255);stop-opacity:1"/><stop offset="1" style="stop-color:rgb(26,136,255);stop-opacity:1"/></linearGradient>
    </defs>
</svg>
